# xmcd CD database file
#
# Track frame offsets:
#	150
#	14260
#	28150
#	44302
#	57020
#	71682
#	83727
#	96425
#	110677
#	126170
#	137672
#	152635
#	168370
#	184325
#	197205
#	209427
#	222507
#	234957
#	247810
#	261677
#	276280
#	289602
#
# Disc length: 4043 seconds
#
# Revision: 0
# Processed by: cddbd v1.5.1PL0 Copyright (c) Steve Scherf et al.
# Submitted via: CDex 1.51
#
DISCID=4d0fc916
DTITLE=Walter Davis - M&O Blues
DYEAR=1900
DGENRE=Blues
TTITLE0=M&O Blues
TTITLE1=Sloppy Drunk Again
TTITLE2=Travelin' This Lonesome Road
TTITLE3=Sweet Sixteen
TTITLE4=Root Man Blues
TTITLE5=What Have I Done Wrong?
TTITLE6=I Can Tell By The Way You Smell
TTITLE7=Santa Claus
TTITLE8=Think You Need A Shot (The Needle)
TTITLE9=Good Gal
TTITLE10=13 Highway
TTITLE11=Just Tell Me Your Trouble
TTITLE12=Let Me In Your Saddle
TTITLE13=Cotton Farm Blues
TTITLE14=Call Your Name
TTITLE15=Save It All For Me
TTITLE16=Come Back Baby
TTITLE17=Can't See Your Face
TTITLE18=Why Should I Be Blue?
TTITLE19=Don't You Want To Go?
TTITLE20=One Sweet Letter From You
TTITLE21=I Feel All Right
EXTD=
EXTT0=
EXTT1=
EXTT2=
EXTT3=
EXTT4=
EXTT5=
EXTT6=
EXTT7=
EXTT8=
EXTT9=
EXTT10=
EXTT11=
EXTT12=
EXTT13=
EXTT14=
EXTT15=
EXTT16=
EXTT17=
EXTT18=
EXTT19=
EXTT20=
EXTT21=
PLAYORDER=
